# xmcd
#
# Track frame offsets: 
#        183
#        57773
#        105038
#        153630
#
# Disc length: 2880 seconds
#
# Revision: 2
# Processed by: cddbd v1.5.1PL2 Copyright (c) Steve Scherf et al.
# Submitted via: ExactAudioCopy v0.90b4
#
DISCID=230b3e04
DTITLE=k.d. lang - The Making Of Shadowland: Words and Music
DYEAR=1988
DGENRE=Country
TTITLE0=Part One
TTITLE1=Part Two
TTITLE2=Part Three
TTITLE3=Part Four
EXTD=The Making Of Shadowland: Words and Music\n\nPromotional Copy - Not
EXTD=For Sale\n\n\n
EXTT0=
EXTT1=
EXTT2=
EXTT3=
PLAYORDER=
